<?xml version="1.0" encoding="utf-8"?>
<!-- Generator: Adobe Illustrator 23.0.1, SVG Export Plug-In . SVG Version: 6.00 Build 0)  -->
<svg version="1.1" id="圖層_1" xmlns="http://www.w3.org/2000/svg" xmlns:xlink="http://www.w3.org/1999/xlink" x="0px" y="0px"
	 viewBox="0 0 128 50" style="enable-background:new 0 0 128 50;" xml:space="preserve">
<style type="text/css">
	.st0{fill:#E61E55;}
	.st1{opacity:0.7;}
	.st2{fill:#370718;}
	.st3{opacity:0.7;fill:#370718;}
</style>
<g>
	<g>
		<rect x="87.96" y="0.91" class="st2" width="8.41" height="48.18"/>
		<rect x="118.63" y="0.91" class="st2" width="8.41" height="48.18"/>
		
			<rect x="103.3" y="5.46" transform="matrix(-1.836970e-16 1 -1 -1.836970e-16 132.5 -82.5)" class="st2" width="8.41" height="39.07"/>
	</g>
	<g>
		<rect x="20.31" y="22.72" class="st2" width="8.41" height="26.37"/>
		
			<rect x="11.75" y="-0.86" transform="matrix(0.7071 -0.7071 0.7071 0.7071 -6.7392 16.012)" class="st2" width="8.41" height="34.01"/>
		
			<rect x="29.86" y="-0.86" transform="matrix(0.7071 0.7071 -0.7071 0.7071 21.3893 -19.3564)" class="st2" width="8.41" height="34.01"/>
	</g>
	<g>
		
			<rect x="49.37" y="-1.11" transform="matrix(0.7071 0.7071 -0.7071 0.7071 26.9534 -33.2165)" class="st0" width="8.41" height="34.07"/>
		
			<rect x="49.37" y="17.04" transform="matrix(-0.7071 0.7071 -0.7071 -0.7071 115.5471 20.2842)" class="st0" width="8.41" height="34.07"/>
		
			<rect x="67.51" y="-1.11" transform="matrix(-0.7071 0.7071 -0.7071 -0.7071 133.6925 -23.5226)" class="st3" width="8.41" height="34.07"/>
		
			<rect x="67.51" y="17.04" transform="matrix(0.7071 0.7071 -0.7071 0.7071 45.0987 -40.7326)" class="st3" width="8.41" height="34.07"/>
	</g>
</g>
</svg>
